<svg width="50" height="50" viewBox="0 0 50 50" fill="none" xmlns="http://www.w3.org/2000/svg">
<path fill-rule="evenodd" clip-rule="evenodd" d="M0 10C0 4.47715 4.47715 0 10 0H40C45.5228 0 50 4.47715 50 10V40C50 45.5228 45.5228 50 40 50H10C4.47715 50 0 45.5228 0 40V10ZM10 5C7.23857 5 5 7.23857 5 10V40C5 42.7615 7.23857 45 10 45H25V27.5H22.5C21.1193 27.5 20 26.3807 20 25C20 23.6193 21.1193 22.5 22.5 22.5H25V18.75C25 13.9175 28.9175 10 33.75 10H35.25C36.6308 10 37.75 11.1193 37.75 12.5C37.75 13.8807 36.6308 15 35.25 15H33.75C31.679 15 30 16.6789 30 18.75V22.5H35.25C36.6308 22.5 37.75 23.6193 37.75 25C37.75 26.3807 36.6308 27.5 35.25 27.5H30V45H40C42.7615 45 45 42.7615 45 40V10C45 7.23857 42.7615 5 40 5H10Z" fill="#646464"/>
</svg>
