<svg width="42" height="42" viewBox="0 0 42 42" fill="none" xmlns="http://www.w3.org/2000/svg">
<path d="M20 22L28.625 13.375" stroke="#667EEA" stroke-width="2" stroke-miterlimit="10" stroke-linecap="round" stroke-linejoin="round"/>
<path d="M40.125 7.625H34.375V1.875L28.625 7.625V13.375H34.375L40.125 7.625Z" stroke="#667EEA" stroke-width="2" stroke-miterlimit="10" stroke-linecap="round" stroke-linejoin="round"/>
<path d="M20 30.625C24.7635 30.625 28.625 26.7635 28.625 22C28.625 17.2365 24.7635 13.375 20 13.375C15.2365 13.375 11.375 17.2365 11.375 22C11.375 26.7635 15.2365 30.625 20 30.625Z" stroke="#667EEA" stroke-width="2" stroke-miterlimit="10" stroke-linecap="round" stroke-linejoin="round"/>
<path d="M35.8125 11.9375C37.6812 14.8125 38.6875 18.2625 38.6875 22C38.6875 32.35 30.35 40.6875 20 40.6875C9.65 40.6875 1.3125 32.35 1.3125 22C1.3125 11.65 9.65 3.3125 20 3.3125C23.7375 3.3125 27.1875 4.31875 30.0625 6.1875" stroke="#667EEA" stroke-width="2" stroke-miterlimit="10" stroke-linecap="round" stroke-linejoin="round"/>
</svg>
