<svg width="61" height="61" viewBox="0 0 61 61" fill="none" xmlns="http://www.w3.org/2000/svg">
<path fill-rule="evenodd" clip-rule="evenodd" d="M18.1969 0.690453C13.3132 0.910803 9.08033 2.10479 5.66237 5.50832C2.23247 8.92973 1.05331 13.1794 0.832416 18.0122C0.6951 21.0287 -0.107852 43.8172 2.22054 49.7935C3.79071 53.8253 6.88321 56.9253 10.9519 58.5005C12.8505 59.239 15.0177 59.7389 18.1969 59.8848C44.7793 61.0878 54.6331 60.4329 58.7884 49.7935C59.5257 47.8996 60.0332 45.7343 60.1735 42.563C61.3885 15.9124 59.9765 10.1357 55.3436 5.50832C51.669 1.84274 47.3465 -0.652497 18.1969 0.690453ZM18.4416 54.5249C15.5311 54.3939 13.952 53.9089 12.8982 53.501C10.2475 52.4707 8.2564 50.4879 7.2325 47.8526C5.45934 43.3115 6.04743 21.7438 6.20565 18.2539C6.36087 14.8355 7.05341 11.7113 9.46538 9.29934C12.4505 6.3216 16.3072 4.86224 42.5673 6.04739C45.9942 6.20222 49.1256 6.89334 51.5436 9.29934C54.5287 12.2771 56.0093 16.1635 54.8033 42.3228C54.672 45.2261 54.1854 46.8014 53.7764 47.8526C51.0749 54.7758 44.8598 55.7368 18.4416 54.5249ZM42.8569 14.3911C42.8569 16.3624 44.4599 17.9654 46.439 17.9654C48.4182 17.9654 50.0242 16.3624 50.0242 14.3911C50.0242 12.4199 48.4182 10.8184 46.439 10.8184C44.4599 10.8184 42.8569 12.4199 42.8569 14.3911ZM15.1759 30.2862C15.1759 38.731 22.0387 45.5777 30.5045 45.5777C38.9703 45.5777 45.8331 38.731 45.8331 30.2862C45.8331 21.8413 38.9703 14.999 30.5045 14.999C22.0387 14.999 15.1759 21.8413 15.1759 30.2862ZM20.5551 30.2862C20.5551 24.8072 25.0089 20.3618 30.5045 20.3618C36.0001 20.3618 40.4539 24.8072 40.4539 30.2862C40.4539 35.7681 36.0001 40.2149 30.5045 40.2149C25.0089 40.2149 20.5551 35.7681 20.5551 30.2862Z" fill="#646464"/>
</svg>
