<svg width="29" height="29" viewBox="0 0 29 29" fill="none" xmlns="http://www.w3.org/2000/svg">
<path d="M14.2324 19.0444V27.0444" stroke="#667EEA" stroke-width="2" stroke-miterlimit="10" stroke-linecap="round" stroke-linejoin="round"/>
<path d="M12.2324 8.04443C12.2324 6.94443 13.1324 6.04443 14.2324 6.04443C15.3324 6.04443 16.2324 6.94443 16.2324 8.04443" stroke="#667EEA" stroke-width="2" stroke-miterlimit="10" stroke-linecap="round" stroke-linejoin="round"/>
<path d="M19.2324 25.0444V9.04443C19.2324 4.64443 17.0324 1.04443 14.2324 1.04443C11.4324 1.04443 9.23242 4.64443 9.23242 9.04443V25.0444" stroke="#667EEA" stroke-width="2" stroke-miterlimit="10" stroke-linecap="round" stroke-linejoin="round"/>
<path d="M9.23242 11.9443C8.53242 13.9443 7.33242 15.7443 5.73242 17.1443L3.83242 18.7443C2.73242 19.6443 2.03242 20.8443 1.83242 22.1443L1.23242 25.0443H9.23242V27.0443H14.2324H19.2324V25.0443H27.2324L26.6324 22.1443C26.3324 20.8443 25.6324 19.5443 24.6324 18.7443L22.7324 17.1443C21.1324 15.7443 19.9324 14.0443 19.2324 11.9443" stroke="#667EEA" stroke-width="2" stroke-miterlimit="10" stroke-linecap="round" stroke-linejoin="round"/>
</svg>
