<svg width="56" height="54" viewBox="0 0 56 54" fill="none" xmlns="http://www.w3.org/2000/svg">
<path d="M48.1725 39.4125C46.6144 39.4163 45.1762 39.9319 44.0194 40.7981L44.0381 40.785L37.8525 35.1637C39.39 33.1069 40.3144 30.5156 40.3144 27.7069C40.3144 24.6806 39.2419 21.9056 37.455 19.74L37.4719 19.7606L44.3044 12.93C45.3994 13.6631 46.7456 14.1 48.1931 14.1C52.0875 14.1 55.2431 10.9444 55.2431 7.05C55.2431 3.15562 52.0875 0 48.1931 0C44.2987 0 41.1431 3.15562 41.1431 7.05C41.1431 8.49937 41.58 9.84563 42.33 10.965L42.3131 10.9388L35.4825 17.7694C33.3356 15.9994 30.5569 14.925 27.525 14.925C25.7681 14.925 24.0975 15.285 22.5788 15.9375L22.6613 15.9056L20.7263 12.3919C22.2094 11.1019 23.1413 9.21375 23.1413 7.10625C23.1413 3.24375 20.01 0.114375 16.1494 0.114375C12.2887 0.114375 9.1575 3.24562 9.1575 7.10625C9.1575 10.9687 12.2887 14.0981 16.1494 14.0981C16.1625 14.0981 16.1775 14.0981 16.1906 14.0981C16.9369 14.0869 17.6475 13.9613 18.3131 13.7344L18.2644 13.7494L20.2088 17.28C16.9144 19.6106 14.79 23.4019 14.7825 27.6919V27.6938C14.8013 29.0006 15.0169 30.2513 15.4013 31.425L15.3769 31.3369L12.7088 32.4675C11.4319 30.6469 9.34313 29.4731 6.97875 29.4731C3.12375 29.4731 0 32.5969 0 36.4519C0 40.3069 3.12375 43.4306 6.97875 43.4306C10.8338 43.4306 13.9575 40.3069 13.9575 36.4519C13.9575 35.9569 13.9069 35.475 13.8094 35.01L13.8169 35.055L16.4775 33.9262C18.6656 37.8506 22.7906 40.4606 27.525 40.4606C30.7688 40.4606 33.7275 39.2344 35.9625 37.2206L35.9512 37.23L42.1556 42.8681C41.5275 43.8881 41.1525 45.12 41.145 46.4419C41.145 50.325 44.2931 53.475 48.1763 53.475C52.0594 53.475 55.2075 50.3269 55.2075 46.4438C55.2075 42.5606 52.0594 39.4125 48.1763 39.4125H48.1725ZM11.9662 7.06875C11.9662 4.73812 13.8544 2.85 16.185 2.85C18.5156 2.85 20.4037 4.73812 20.4037 7.06875C20.4037 9.39938 18.5156 11.2875 16.185 11.2875C13.8562 11.2837 11.97 9.3975 11.9662 7.06875ZM6.9225 40.6688C4.59375 40.6669 2.7075 38.7806 2.7075 36.4519C2.7075 34.1231 4.59562 32.235 6.92437 32.235C9.25312 32.235 11.1394 34.1213 11.1412 36.45C11.1375 38.7788 9.25125 40.665 6.9225 40.6688ZM48.1725 2.85C50.5031 2.85 52.3912 4.73812 52.3912 7.06875C52.3912 9.39938 50.5031 11.2875 48.1725 11.2875C45.8419 11.2875 43.9537 9.39938 43.9537 7.06875C43.9575 4.74 45.8437 2.85375 48.1725 2.85ZM17.5912 27.6938C17.5912 27.6938 17.5912 27.6937 17.5912 27.6919C17.5912 22.1944 22.0481 17.7375 27.5456 17.7375C33.0431 17.7375 37.5 22.1944 37.5 27.6919C37.5 33.1894 33.0431 37.6463 27.5456 37.6463C22.05 37.6406 17.5987 33.1875 17.5912 27.6938ZM48.1725 50.6625C45.8419 50.6625 43.9537 48.7744 43.9537 46.4438C43.9537 44.1131 45.8419 42.225 48.1725 42.225C50.5031 42.225 52.3912 44.1131 52.3912 46.4438C52.3875 48.7725 50.5012 50.6588 48.1725 50.6625Z" fill="#667EEA"/>
</svg>
