<svg width="50" height="60" viewBox="0 0 50 60" fill="none" xmlns="http://www.w3.org/2000/svg">
<path d="M45.3789 17.5847H3.75832C1.69617 17.5847 0.0104297 19.2699 0 21.343V56.2417C0.0104297 58.3138 1.69629 60 3.75832 60H45.3787C47.4404 60 49.1256 58.3149 49.1371 56.2417V21.343C49.1268 19.2708 47.4405 17.5847 45.3789 17.5847ZM46.4525 50.1669V56.2606C46.4317 56.852 45.9598 57.3155 45.3787 57.3155H39.304L46.4525 50.1669ZM2.68453 28.7496L2.68512 21.3242C2.70551 20.7327 3.17695 20.2692 3.75832 20.2692H11.1643L2.68453 28.7496ZM20.8243 33.4233L33.9785 20.2692H42.9387L29.784 33.4233H20.8243ZM46.4525 27.3528L40.382 33.4233H31.412L43.9863 20.8491L43.4064 20.2692H45.3789C45.9599 20.2692 46.4317 20.7327 46.4527 21.343L46.4525 27.3528ZM10.2363 33.4233L23.3904 20.2692H32.3395L19.1855 33.4233H10.2363ZM2.68453 33.4233V30.3876L12.8029 20.2692H21.752L8.59781 33.4233H2.68453ZM2.68453 51.5628L16.6582 37.5897H15.0192L2.68453 49.9247V40.9756L6.07008 37.5896H4.43156L2.68453 39.3365V34.4971H46.4525V37.9408L27.0779 57.3154H18.1188L37.8338 37.5894H36.2156L16.4904 57.3155H7.5198L27.2457 37.5896H25.6178L5.89184 57.3155H3.75832C3.17684 57.3155 2.70551 56.852 2.68453 56.2417V51.5628ZM46.4525 39.5799V48.529L37.6661 57.3155H28.7164L46.4525 39.5799ZM46.4525 28.9697V33.4233H42.0001L46.4525 28.9697Z" fill="#667EEA"/>
<path d="M8.07197 12.2482L23.9955 16.1051C24.3719 16.1963 24.7652 16.1963 25.1417 16.1051L41.0644 12.2482C41.79 12.0731 42.395 11.5739 42.7055 10.8943C43.0158 10.2148 42.997 9.4295 42.6551 8.76563L38.8149 1.31919C38.4606 0.631296 37.7988 0.152116 37.0344 0.0303582C36.27 -0.0911652 35.4941 0.157272 34.9419 0.700554L26.2771 9.23426C25.329 10.1677 23.8074 10.1677 22.8594 9.23426L14.194 0.699499C13.6424 0.156218 12.8653 -0.0911652 12.1009 0.0303582C11.3365 0.151999 10.6759 0.631296 10.3208 1.31919L6.48057 8.76563C6.13826 9.4295 6.11986 10.2138 6.43018 10.8934C6.74072 11.5729 7.34576 12.073 8.07197 12.2482Z" fill="#667EEA"/>
</svg>
