<svg width="54" height="60" viewBox="0 0 54 60" fill="none" xmlns="http://www.w3.org/2000/svg">
<path d="M53.1771 22.4333C53.0166 22.078 52.8055 21.7462 52.5332 21.4576C52.2778 21.184 51.9633 20.9568 51.6101 20.7963L10.3838 0.306914L10.3535 0.295078C9.87961 0.0915234 9.37559 0 8.87695 0C8.10574 0.00117187 7.34965 0.215391 6.63129 0.571992C5.55328 1.11047 4.54078 1.9698 3.62531 3.06199C2.70773 4.15629 1.89141 5.49059 1.25156 7.00395C0.415781 8.97809 0.00117187 10.9545 0 12.7208C0.00117187 13.9336 0.193945 15.0559 0.628008 16.0154C0.84668 16.4968 1.12664 16.9373 1.48324 17.3154C1.83645 17.6924 2.26723 18.0026 2.75625 18.2094L2.78742 18.2223L26.4357 26.6058V33.3846L12.0875 55.1706C11.757 55.6725 11.8969 56.3489 12.3988 56.6795C12.9007 57.0113 13.5771 56.87 13.9077 56.3693L26.4357 37.347V58.909C26.4357 59.5121 26.9235 60 27.5266 60C28.1276 60 28.6155 59.5123 28.6155 58.909V37.2145L41.2308 56.3694C41.5636 56.8703 42.2379 57.0114 42.7418 56.6796C43.2448 56.349 43.3827 55.6726 43.0509 55.1707L28.6155 33.2532V27.3791L46.1797 33.6064V33.6042C46.5275 33.742 46.896 33.81 47.2568 33.81C47.848 33.8067 48.4113 33.643 48.938 33.3845C49.7273 32.9892 50.4458 32.3742 51.093 31.6021C51.7382 30.8298 52.309 29.895 52.7592 28.8386C53.3429 27.4567 53.6348 26.0716 53.636 24.8179C53.6348 23.9552 53.4991 23.1475 53.1771 22.4333ZM4.46977 16.3718C4.25004 16.3718 4.04109 16.3439 3.84082 16.2836L3.59402 16.1973C3.4002 16.1112 3.23109 15.9927 3.06855 15.8203C2.81977 15.5576 2.59137 15.159 2.43094 14.6313C2.27262 14.1036 2.17887 13.4531 2.17887 12.7207C2.17887 11.299 2.52574 9.58008 3.2591 7.85367C4.00441 6.09059 5.02547 4.62152 6.0723 3.6307C6.59145 3.13641 7.11703 2.76258 7.6016 2.52352C8.08629 2.28234 8.52246 2.17781 8.87684 2.17781C9.10406 2.17898 9.30012 2.21988 9.48855 2.29523L9.72867 2.41582C9.91078 2.52035 10.0766 2.65066 10.2306 2.81004C10.5538 3.14707 10.8209 3.61465 11.0039 4.1993C11.1881 4.78102 11.2861 5.47242 11.285 6.23707C11.286 7.61883 10.963 9.22477 10.2812 10.8295C9.5618 12.5269 8.56547 13.9378 7.51113 14.9039C6.98555 15.3875 6.44602 15.758 5.92687 16.0057C5.40785 16.2523 4.91461 16.3718 4.46977 16.3718ZM15.352 20.3645L6.35672 17.1754C6.39012 17.1602 6.4268 17.1451 6.46219 17.13C7.43906 16.6637 8.38148 15.9001 9.23133 14.9093C10.0843 13.9206 10.8394 12.7014 11.4262 11.3184C12.1683 9.56719 12.5302 7.80727 12.5302 6.23707C12.5302 5.2752 12.3933 4.38234 12.1112 3.60059L20.6563 7.84617C20.7328 8.0141 20.8049 8.18859 20.8664 8.37937C21.0516 8.9598 21.1485 9.65555 21.1485 10.4181C21.1496 11.7989 20.8264 13.4058 20.1448 15.0127C19.4252 16.7079 18.428 18.1188 17.3746 19.0849C16.8491 19.5686 16.3095 19.939 15.7903 20.1867C15.6417 20.2567 15.4963 20.3148 15.352 20.3645ZM43.2523 30.2558L16.9869 20.9449C17.7279 20.4818 18.4398 19.855 19.0946 19.0915C19.9478 18.1016 20.7027 16.8824 21.2896 15.4984C22.0305 13.7461 22.3935 11.9906 22.3935 10.4181C22.3935 9.7848 22.3331 9.18281 22.2136 8.61949L47.1619 21.0193C47.3223 21.223 47.457 21.4815 47.5571 21.8024C47.6821 22.1987 47.751 22.6759 47.751 23.2057C47.7532 24.1654 47.527 25.2898 47.0488 26.4173C46.5448 27.6075 45.8436 28.5952 45.1145 29.2661C44.7484 29.6021 44.3767 29.8563 44.0256 30.0221C43.75 30.1535 43.4893 30.2278 43.2523 30.2558ZM50.7517 27.9886C50.2637 29.1443 49.5918 30.1071 48.9207 30.7362C48.5879 31.0549 48.2584 31.2865 47.9675 31.433C47.6746 31.5773 47.4323 31.6289 47.2567 31.6289C47.1414 31.6289 47.0531 31.6095 46.9691 31.5739L46.939 31.56L45.0347 30.8858C45.5883 30.5434 46.1139 30.0791 46.5986 29.518C47.2178 28.7964 47.7681 27.9101 48.1936 26.904C48.7322 25.6321 48.997 24.3559 48.997 23.2056C48.997 22.7307 48.9464 22.2826 48.8549 21.8593L50.6696 22.7607L50.6998 22.7748C50.787 22.8103 50.8636 22.8642 50.9486 22.9547C51.0724 23.0817 51.2029 23.3025 51.2998 23.6203C51.3988 23.9392 51.457 24.3484 51.457 24.818C51.4571 25.7291 51.2331 26.8534 50.7517 27.9886Z" fill="#667EEA"/>
</svg>
