<svg width="55" height="54" viewBox="0 0 55 54" fill="none" xmlns="http://www.w3.org/2000/svg">
<path fill-rule="evenodd" clip-rule="evenodd" d="M6.75005 27C6.75005 15.264 16.264 5.75 28 5.75C39.736 5.75 49.25 15.264 49.25 27C49.25 38.736 39.736 48.25 28 48.25C23.8195 48.25 19.9282 47.0455 16.645 44.9653C16.0339 44.5783 15.2852 44.4747 14.5921 44.6815L7.39423 46.8298L10.1043 40.4882C10.4247 39.7387 10.3595 38.8802 9.92968 38.1877C7.91425 34.94 6.75005 31.1098 6.75005 27ZM28 0.75C13.5026 0.75 1.75005 12.5025 1.75005 27C1.75005 31.5952 2.9329 35.9208 5.01163 39.6818L0.701179 49.7675C0.320124 50.6593 0.489029 51.6908 1.13455 52.4143C1.78008 53.138 2.7858 53.423 3.71498 53.1455L14.9635 49.7887C18.8061 51.9912 23.2593 53.25 28 53.25C42.4975 53.25 54.25 41.4975 54.25 27C54.25 12.5025 42.4975 0.75 28 0.75ZM33.7313 32.456L30.4458 34.7702C28.907 33.8937 27.2058 32.6702 25.4993 30.9637C23.7253 29.1897 22.4101 27.3583 21.4403 25.6783L23.5283 23.906C24.4243 23.1455 24.6695 21.8633 24.1175 20.8257L21.4571 15.8257C21.0989 15.1524 20.4529 14.6795 19.7029 14.5414C18.9528 14.4032 18.1808 14.615 17.6062 15.1165L16.8174 15.8049C14.9206 17.4603 13.7988 20.1807 14.7285 22.9352C15.6925 25.7907 17.7496 30.285 21.9638 34.4992C26.4978 39.0332 31.1033 40.8187 33.7965 41.5122C35.9665 42.0707 38.02 41.322 39.467 40.143L40.9458 38.938C41.5783 38.4227 41.9195 37.631 41.86 36.8172C41.8003 36.0035 41.3473 35.27 40.6463 34.8522L36.4505 32.3522C35.603 31.8475 34.538 31.888 33.7313 32.456Z" fill="#646464"/>
</svg>
